<svg width="50" height="50" viewBox="0 0 50 50" fill="none" xmlns="http://www.w3.org/2000/svg">
<path d="M33.8405 23.2234L32.627 47.4098H37.481L36.2675 26.1142" stroke="#51B6BE" stroke-width="1.5" stroke-miterlimit="10"/>
<path d="M35.0541 22.6934C36.3812 22.6934 37.4569 21.6257 37.4569 20.3085C37.4569 18.9913 36.3812 17.9236 35.0541 17.9236C33.7271 17.9236 32.6514 18.9913 32.6514 20.3085C32.6514 21.6257 33.7271 22.6934 35.0541 22.6934Z" stroke="#51B6BE" stroke-width="1.5" stroke-miterlimit="10"/>
<path d="M37.7603 20.4892L45.3934 2.72274C45.3934 2.62637 45.2963 2.5541 45.2477 2.63841L33.5615 18.0802" stroke="#51B6BE" stroke-width="1.5" stroke-miterlimit="10"/>
<path d="M33.5615 22.5488L45.2477 37.9785C45.2477 38.0628 45.4298 37.9785 45.3934 37.8941L37.7603 20.1398" stroke="#51B6BE" stroke-width="1.5" stroke-miterlimit="10"/>
<path d="M33.8648 17.8994L14.5576 20.2241C14.5351 20.2241 14.5135 20.233 14.4975 20.2488C14.4816 20.2646 14.4727 20.2861 14.4727 20.3084C14.4727 20.3308 14.4816 20.3522 14.4975 20.368C14.5135 20.3839 14.5351 20.3927 14.5576 20.3927L33.8648 22.7174" stroke="#51B6BE" stroke-width="1.5" stroke-miterlimit="10"/>
<path d="M5.77197 36.9426H24.4238" stroke="#51B6BE" stroke-width="1.5" stroke-miterlimit="10"/>
<path d="M17.5187 41.9172V47.4098H13.8782V41.9172" stroke="#51B6BE" stroke-width="1.5" stroke-miterlimit="10"/>
<path d="M17.7856 31.5344L19.1812 42.6881" stroke="#51B6BE" stroke-width="1.5" stroke-miterlimit="10"/>
<path d="M12.9922 31.5344L11.5967 42.6881" stroke="#51B6BE" stroke-width="1.5" stroke-miterlimit="10"/>
<path d="M21.6933 31.5344H9.09689C8.83317 31.5328 8.57531 31.6116 8.35825 31.7603C8.14119 31.909 7.97541 32.1203 7.88337 32.3656L4.70394 40.6164C4.62978 40.8122 4.60429 41.0229 4.62962 41.2305C4.65494 41.4382 4.73032 41.6367 4.84941 41.8093C4.9685 41.9818 5.12778 42.1234 5.3137 42.2218C5.49963 42.3203 5.70674 42.3729 5.91747 42.375H24.8727C25.0834 42.3729 25.2905 42.3203 25.4764 42.2218C25.6624 42.1234 25.8216 41.9818 25.9407 41.8093C26.0598 41.6367 26.1352 41.4382 26.1605 41.2305C26.1858 41.0229 26.1604 40.8122 26.0862 40.6164L22.9189 32.3656C22.8218 32.1212 22.6531 31.9114 22.4346 31.7632C22.2161 31.6151 21.9579 31.5354 21.6933 31.5344Z" stroke="#51B6BE" stroke-width="1.5" stroke-miterlimit="10"/>
<path d="M36.9569 20.3085C36.9569 21.346 36.1085 22.1934 35.0541 22.1934C33.9997 22.1934 33.1514 21.346 33.1514 20.3085C33.1514 19.271 33.9997 18.4236 35.0541 18.4236C36.1085 18.4236 36.9569 19.271 36.9569 20.3085Z" stroke="#51B6BE" stroke-miterlimit="10"/>
</svg>
