<svg width="182" height="56" viewBox="0 0 182 56" fill="none" xmlns="http://www.w3.org/2000/svg">
<path d="M35.052 21.877V12.1333H12.1334V35.0379H21.8851V44.8H44.8V21.8954L35.052 21.877ZM15.648 31.5433V15.639H31.5447V29.1497L27.7796 25.3863L24.2687 21.877L21.8888 19.4981V31.5433H15.648ZM41.2928 41.2906H25.396V27.5479L29.3785 31.5433L32.8894 35.0526L35.0557 37.2179V34.839V25.3863H41.2965L41.2928 41.2906Z" fill="#51B6BE"/>
<path d="M83.0793 18.5H87.2826L94.2546 37.1445H89.9941L88.5883 32.9985H81.6162L80.1532 37.1517H76L83.0793 18.5ZM82.6858 29.9471H87.5187L85.1684 23.1039H85.1148L82.6858 29.9471Z" fill="#13285B"/>
<path d="M95.6137 18.5H99.7132V33.714H108.799V37.1624H95.6137V18.5Z" fill="#13285B"/>
<path d="M114.677 21.9449H109.085V18.5H124.364V21.9449H118.776V37.1445H114.677V21.9449Z" fill="#13285B"/>
<path d="M126.765 18.5H140.716V21.9449H130.864V25.9406H139.9V29.128H130.864V33.714H140.92V37.1624H126.765V18.5Z" fill="#13285B"/>
<path d="M143.428 18.5H153.48C156.824 18.5 158.939 20.8216 158.939 23.6441C158.939 25.8369 158.051 27.4824 155.987 28.3159V28.3696C157.998 28.8919 158.574 30.8486 158.703 32.7302C158.781 33.9036 158.756 36.1 159.486 37.1445H155.386C154.889 35.9676 154.943 34.1647 154.735 32.6766C154.446 30.7198 153.691 29.8577 151.627 29.8577H147.527V37.1445H143.428V18.5ZM147.527 26.9172H152.017C153.845 26.9172 154.839 26.1338 154.839 24.2558C154.839 22.4671 153.845 21.6694 152.017 21.6694H147.527V26.9172Z" fill="#13285B"/>
<path d="M180.795 21.9075H173.247L172.531 26.0571L172.582 26.1107C173.043 25.6343 173.601 25.2621 174.218 25.019C174.835 24.7759 175.496 24.6676 176.159 24.7013C179.765 24.7013 181.8 27.4951 181.8 30.915C181.798 31.797 181.619 32.6697 181.274 33.4814C180.929 34.2932 180.425 35.0276 179.792 35.6412C179.158 36.2548 178.408 36.7351 177.585 37.0539C176.763 37.3727 175.885 37.5234 175.003 37.4971C171.455 37.4971 168.267 35.5367 168.207 31.6984H171.913C171.966 32.4533 172.307 33.159 172.865 33.6696C173.424 34.1803 174.157 34.4568 174.914 34.4421C176.849 34.4421 178.076 32.7429 178.076 30.915C178.076 29.0083 176.899 27.4951 174.914 27.4951C173.583 27.4951 172.853 27.9637 172.12 28.9582H168.779L170.568 18.8525H180.777L180.795 21.9075Z" fill="#13285B"/>
</svg>
