<svg width="46" height="46" viewBox="0 0 46 46" fill="none" xmlns="http://www.w3.org/2000/svg">
<path d="M29.7175 18.4038C30.3033 17.818 30.3033 16.8682 29.7175 16.2825C29.1317 15.6967 28.182 15.6967 27.5962 16.2825L23 20.8786L18.4038 16.2825C17.818 15.6967 16.8683 15.6967 16.2825 16.2825C15.6967 16.8682 15.6967 17.818 16.2825 18.4038L20.8787 23L16.2825 27.5962C15.6967 28.182 15.6967 29.1317 16.2825 29.7175C16.8683 30.3033 17.818 30.3033 18.4038 29.7175L23 25.1213L27.5962 29.7175C28.182 30.3033 29.1317 30.3033 29.7175 29.7175C30.3033 29.1317 30.3033 28.182 29.7175 27.5962L25.1213 23L29.7175 18.4038Z" fill="#51B6BE"/>
<path d="M23 40C13.6112 40 6 32.3888 6 23H0C0 35.7025 10.2975 46 23 46V40ZM40 23C40 32.3888 32.3888 40 23 40V46C35.7025 46 46 35.7025 46 23H40ZM23 6C32.3888 6 40 13.6112 40 23H46C46 10.2975 35.7025 0 23 0V6ZM23 0C10.2975 0 0 10.2975 0 23H6C6 13.6112 13.6112 6 23 6V0Z" fill="#51B6BE"/>
</svg>
