<svg width="50" height="50" viewBox="0 0 50 50" fill="none" xmlns="http://www.w3.org/2000/svg">
<g clip-path="url(#clip0_904_22250)">
<path d="M37.1499 15.6301C36.7699 16.5201 36.5998 16.98 36.3898 17.42C34.8198 20.56 34.9299 20.9401 38.1899 21.8101C38.8398 21.9106 39.4293 22.2483 39.8448 22.758C40.2603 23.2677 40.4723 23.9133 40.4399 24.5701C40.5599 26.4701 39.7799 27.4001 37.9699 27.9101C35.0399 28.7301 34.8499 29.2701 36.3099 32.0001C36.7726 32.6363 36.967 33.4288 36.851 34.2069C36.7351 34.985 36.318 35.6864 35.6899 36.1601C34.2799 37.4701 33.0999 37.07 31.6899 36.21C29.4499 34.81 28.4899 35.21 27.9099 37.77C27.5199 39.51 26.7199 40.5001 24.7799 40.5901C22.8399 40.6801 22.0899 39.3901 21.6099 37.8201C20.8199 35.2201 19.8599 34.8201 17.6099 36.2201C16.0799 37.2201 14.8699 37.35 13.4399 35.99C12.0099 34.63 12.2399 33.3501 13.0899 31.8401C14.5799 29.2001 14.4199 28.74 11.5599 27.93C9.80989 27.43 8.91995 26.6001 8.99995 24.6501C9.07995 22.7001 9.99986 22.11 11.6599 21.73C14.2899 21.13 14.5599 20.35 13.1999 17.96C12.3199 16.42 11.8599 15.1001 13.4499 13.5901C15.0399 12.0801 16.3199 12.5901 17.8499 13.5301C19.8499 14.7401 20.8499 14.24 21.5699 11.96C22.0599 10.3 22.5699 8.91005 24.8399 8.96005C27.1099 9.01005 27.5899 10.26 27.9699 12.05C28.4399 14.29 29.4899 14.49 31.7899 13.39C32.8105 12.87 33.9922 12.7626 35.0899 13.0901C36.0299 13.5501 36.5599 14.8601 37.1499 15.6301ZM14.1999 33.8501C14.8099 35.1801 15.5899 35.3701 16.8999 34.5601C20.0799 32.5601 22.2199 33.56 23.4199 37.11C23.6199 37.72 24.3599 38.11 24.8499 38.67C25.3199 38.13 26.0299 37.6701 26.2299 37.0401C27.2999 33.5701 29.33 32.7501 32.5 34.5001C33.1892 34.6921 33.9089 34.7498 34.6199 34.67C34.708 33.9509 34.6605 33.2217 34.4799 32.52C32.7599 29.18 33.4799 27.42 37.1099 26.24C37.7399 26.04 38.1999 25.2401 38.7399 24.7801C38.1699 24.3001 37.6698 23.59 37.0198 23.39C33.5398 22.39 32.7699 20.39 34.4799 17.05C34.6473 16.3525 34.6778 15.6292 34.5699 14.92C33.853 14.8529 33.1299 14.9243 32.4399 15.1301C29.4399 16.8201 27.2098 15.9801 26.2598 12.7501C26.0498 12.0601 25.2599 11.53 24.7999 10.92C24.2899 11.53 23.5399 12.06 23.3199 12.76C22.3199 15.95 19.8899 16.9601 17.0599 15.1501C15.7599 14.3101 14.8499 14.2 14.1699 15.8C14.2599 16.01 14.3399 16.25 14.4499 16.46C16.8099 20.7 16.4499 21.77 11.9499 23.51C11.4599 23.7 10.7399 24.51 10.8299 24.77C10.9396 25.0868 11.1147 25.3769 11.3438 25.6215C11.573 25.8662 11.851 26.0599 12.1599 26.1901C13.5399 26.6301 14.7799 26.79 15.5899 28.46C16.7599 30.88 14.5599 32.0501 14.1999 33.8501V33.8501Z" fill="#51B6BE"/>
<path d="M30.5099 24.82C30.4705 26.3427 29.8535 27.7934 28.7838 28.878C27.7142 29.9625 26.2721 30.5995 24.75 30.66C23.5861 30.6798 22.4427 30.3526 21.4655 29.72C20.4883 29.0874 19.7217 28.1781 19.2633 27.108C18.805 26.038 18.6758 24.8557 18.8921 23.7119C19.1084 22.5681 19.6605 21.5146 20.4779 20.6858C21.2954 19.8571 22.341 19.2905 23.4817 19.0584C24.6224 18.8264 25.8064 18.9393 26.8827 19.3828C27.959 19.8263 28.8788 20.5803 29.5248 21.5487C30.1708 22.5171 30.5137 23.6559 30.5099 24.82V24.82ZM28.73 24.82C28.7449 24.0334 28.5276 23.26 28.1053 22.5963C27.6829 21.9327 27.0741 21.4083 26.3553 21.0888C25.6364 20.7693 24.8393 20.6689 24.0636 20.8C23.288 20.9312 22.5682 21.2882 21.9944 21.8263C21.4206 22.3644 21.0182 23.0598 20.8376 23.8255C20.6569 24.5911 20.706 25.393 20.9788 26.1308C21.2515 26.8687 21.7358 27.5098 22.371 27.9739C23.0062 28.4379 23.7641 28.7044 24.55 28.74C25.6161 28.7699 26.6515 28.3802 27.4333 27.6545C28.215 26.9289 28.6806 25.9254 28.73 24.8599V24.82Z" fill="#51B6BE"/>
</g>
<defs>
<clipPath id="clip0_904_22250">
<rect width="31.45" height="31.59" fill="white" transform="translate(9 9)"/>
</clipPath>
</defs>
</svg>
