<svg width="50" height="50" viewBox="0 0 50 50" fill="none" xmlns="http://www.w3.org/2000/svg">
<g clip-path="url(#clip0_904_22152)">
<path d="M25.29 41.09C24.58 40.22 24.09 39.69 23.67 39.09C19.4 33.09 15.1699 27.15 10.8399 21.24C9.71994 19.71 9.83993 18.48 10.4499 16.73C12.4999 10.56 16.45 8.21998 22.89 9.18998C26.51 9.72998 30.29 9.19 33.98 9.37C34.5785 9.45019 35.1539 9.65324 35.6701 9.96644C36.1864 10.2796 36.6324 10.6962 36.98 11.19C41.53 18.94 41.48 18.97 36.15 26.19L25.29 41.09ZM30.5799 20.27H20.11L24.98 34.8H25.51L30.5799 20.27ZM27.75 33.87L28.17 34.14L38.49 20.08C36.8635 20.0056 35.2341 20.0256 33.61 20.14C33.2861 20.2226 32.985 20.3769 32.7289 20.5915C32.4727 20.8061 32.268 21.0756 32.13 21.38C30.61 25.52 29.2 29.7 27.75 33.87ZM22.28 34.07L22.6899 33.76C21.3499 29.66 20.03 25.55 18.62 21.47C18.5006 21.159 18.3128 20.8789 18.0704 20.6504C17.8281 20.4219 17.5374 20.2509 17.2199 20.15C15.556 20.0319 13.8866 20.0085 12.2199 20.08L22.28 34.07ZM30.1799 18.07L25.28 11.77L20.92 18.07H30.1799ZM33.6899 11.3H27.23L31.66 17.02L33.6899 11.3ZM17.17 11.3L19.17 17.3L23.4 11.3H17.17ZM11.9299 18.02H17.5L15.28 11.65L11.9299 18.02ZM35.4299 11.82L33.28 18.08H38.62L35.4299 11.82Z" fill="#51B6BE"/>
</g>
<defs>
<clipPath id="clip0_904_22152">
<rect width="30.32" height="32.09" fill="white" transform="translate(10 9)"/>
</clipPath>
</defs>
</svg>
