<svg width="30" height="38" viewBox="0 0 30 38" fill="none" xmlns="http://www.w3.org/2000/svg">
<path d="M2.2002 8.62C2.04392 8.62 1.88919 8.58922 1.74481 8.52942C1.60043 8.46962 1.46927 8.38196 1.35876 8.27146C1.24826 8.16096 1.16057 8.02978 1.10077 7.8854C1.04097 7.74102 1.01019 7.58627 1.01019 7.43C1.01019 7.27373 1.04097 7.11899 1.10077 6.97461C1.16057 6.83023 1.24826 6.69905 1.35876 6.58855C1.46927 6.47804 1.60043 6.39039 1.74481 6.33059C1.88919 6.27079 2.04392 6.24001 2.2002 6.24001H25.5402L21.0102 1.91C20.8991 1.81058 20.8101 1.68883 20.7493 1.5527C20.6884 1.41657 20.6569 1.26912 20.6569 1.12C20.6569 0.970884 20.6884 0.823447 20.7493 0.687317C20.8101 0.551187 20.8991 0.429427 21.0102 0.330002C21.2451 0.119176 21.5496 0.00256348 21.8652 0.00256348C22.1808 0.00256348 22.4853 0.119176 22.7202 0.330002L29.5202 6.64001C29.6313 6.73943 29.7203 6.86118 29.7811 6.99731C29.842 7.13344 29.8734 7.28088 29.8734 7.43C29.8734 7.57912 29.842 7.72656 29.7811 7.86269C29.7203 7.99882 29.6313 8.12058 29.5202 8.22L22.7202 14.54C22.4938 14.7555 22.1973 14.8822 21.8851 14.8969C21.5729 14.9115 21.2659 14.8133 21.0202 14.62C20.9015 14.5167 20.8063 14.3892 20.741 14.246C20.6758 14.1029 20.6421 13.9473 20.6421 13.79C20.6421 13.6327 20.6758 13.4772 20.741 13.334C20.8063 13.1908 20.9015 13.0633 21.0202 12.96L25.5502 8.62H2.2002ZM28.6702 29.12C28.8363 29.1048 29.0038 29.1244 29.1619 29.1775C29.32 29.2307 29.4653 29.3162 29.5886 29.4286C29.7118 29.5411 29.8102 29.678 29.8775 29.8306C29.9448 29.9832 29.9796 30.1482 29.9796 30.315C29.9796 30.4818 29.9448 30.6468 29.8775 30.7994C29.8102 30.952 29.7118 31.0889 29.5886 31.2014C29.4653 31.3138 29.32 31.3993 29.1619 31.4525C29.0038 31.5056 28.8363 31.5252 28.6702 31.51H5.3302L9.86017 35.84C9.9713 35.9394 10.0602 36.0612 10.1211 36.1973C10.182 36.3334 10.2134 36.4809 10.2134 36.63C10.2134 36.7791 10.182 36.9266 10.1211 37.0627C10.0602 37.1988 9.9713 37.3206 9.86017 37.42C9.62795 37.6322 9.32477 37.7499 9.01019 37.7499C8.69561 37.7499 8.39243 37.6322 8.16022 37.42L1.35022 31.1C1.23932 31.0015 1.15051 30.8806 1.08972 30.7453C1.02893 30.61 0.997559 30.4633 0.997559 30.315C0.997559 30.1667 1.02893 30.02 1.08972 29.8847C1.15051 29.7494 1.23932 29.6285 1.35022 29.53L8.2002 23.21C8.43241 22.9978 8.73559 22.8801 9.05017 22.8801C9.36475 22.8801 9.66799 22.9978 9.90021 23.21C10.0113 23.3094 10.1003 23.4312 10.1611 23.5673C10.222 23.7034 10.2534 23.8509 10.2534 24C10.2534 24.1491 10.222 24.2966 10.1611 24.4327C10.1003 24.5688 10.0113 24.6906 9.90021 24.79L5.37018 29.12H28.6702Z" fill="#5A5A5A"/>
</svg>
