<svg width="27" height="35" viewBox="0 0 27 35" fill="none" xmlns="http://www.w3.org/2000/svg">
<path fill-rule="evenodd" clip-rule="evenodd" d="M20.0201 4.31998H24.4801L24.5201 4.32999C24.8056 4.32314 25.0896 4.37434 25.3547 4.48047C25.6199 4.58659 25.8608 4.74543 26.0627 4.94739C26.2647 5.14934 26.4235 5.39021 26.5296 5.65536C26.6358 5.92053 26.687 6.20446 26.6801 6.48999V8.64999C26.6801 9.80999 26.1801 10.81 25.6001 10.81H24.4501L23.7301 22.69L23.1501 32.41C23.1168 32.9963 22.8595 33.5473 22.4315 33.9493C22.0035 34.3513 21.4373 34.5735 20.8501 34.57H5.85011C5.26707 34.5595 4.70877 34.3326 4.2837 33.9334C3.85863 33.5342 3.59717 32.9912 3.55012 32.41L2.90013 22.69L2.33012 12.97L2.18013 10.81H1.10011C0.53011 10.81 0.0201236 9.79999 0.0201236 8.64999V6.48999C0.0134031 6.20572 0.0639278 5.923 0.168714 5.65866C0.273499 5.39432 0.430415 5.15376 0.630078 4.95129C0.829741 4.74883 1.06809 4.58862 1.33095 4.48016C1.5938 4.37171 1.8758 4.31721 2.16014 4.31998H6.63011L6.99012 2.16C7.10311 1.56763 7.41402 1.0312 7.8719 0.638733C8.32977 0.246269 8.90742 0.0210609 9.51011 0H17.1401C17.7407 0.0280685 18.3147 0.255789 18.7712 0.647064C19.2277 1.03834 19.5405 1.57079 19.6601 2.16L20.0201 4.31998ZM17.5401 2.16998H9.26011L8.90013 4.32999H17.9001L17.5401 2.16998ZM5.69014 32.41H20.9901L22.2501 10.81H4.39012L5.69014 32.41ZM2.16014 8.64999H24.4101V6.48999H2.16014V8.64999ZM14.0781 30.058C13.8767 30.2594 13.6049 30.3749 13.3201 30.38C13.0248 30.3696 12.7456 30.2428 12.5433 30.0274C12.341 29.812 12.232 29.5254 12.2401 29.23V13.89C12.2401 13.6035 12.3539 13.3289 12.5564 13.1263C12.759 12.9238 13.0337 12.81 13.3201 12.81C13.6065 12.81 13.8813 12.9238 14.0838 13.1263C14.2863 13.3289 14.4001 13.6035 14.4001 13.89V29.3C14.395 29.5848 14.2795 29.8565 14.0781 30.058ZM18.0201 30.38C18.3049 30.3749 18.5767 30.2594 18.7781 30.058C18.9795 29.8565 19.095 29.5848 19.1001 29.3V13.89C19.1001 13.6035 18.9863 13.3289 18.7838 13.1263C18.5812 12.9238 18.3065 12.81 18.0201 12.81C17.7337 12.81 17.459 12.9238 17.2564 13.1263C17.0539 13.3289 16.9401 13.6035 16.9401 13.89V29.23C16.932 29.5254 17.041 29.812 17.2433 30.0274C17.4456 30.2428 17.7248 30.3696 18.0201 30.38ZM9.3981 30.058C9.19666 30.2594 8.92493 30.3749 8.6401 30.38C8.34478 30.3696 8.06557 30.2428 7.86328 30.0274C7.66098 29.812 7.55201 29.5254 7.56011 29.23V13.89C7.56011 13.6035 7.67389 13.3289 7.87643 13.1263C8.07897 12.9238 8.35367 12.81 8.6401 12.81C8.92653 12.81 9.20123 12.9238 9.40377 13.1263C9.60631 13.3289 9.72012 13.6035 9.72012 13.89V29.3C9.71498 29.5848 9.59953 29.8565 9.3981 30.058Z" fill="#5A5A5A"/>
</svg>
