<svg width="33" height="24" viewBox="0 0 33 24" fill="none" xmlns="http://www.w3.org/2000/svg">
<path d="M30.9348 0H2.0566C1.51185 0.00219822 0.990051 0.214074 0.60485 0.589454C0.219649 0.964835 0.00225573 1.47331 0 2.00417V21.9875C0.00223576 22.5191 0.219364 23.0285 0.604326 23.4052C0.989289 23.7819 1.51107 23.9956 2.0566 24H30.9348C31.4804 23.9956 32.0021 23.7819 32.3871 23.4052C32.7721 23.0285 32.9892 22.5191 32.9914 21.9875V2.00417C32.9892 1.47331 32.7718 0.964835 32.3866 0.589454C32.0014 0.214074 31.4796 0.00219822 30.9348 0ZM16.4957 14.572L3.74474 2.04594H29.2467L16.4957 14.572ZM1.92807 22.0877V3.16493L15.7245 16.7098C15.8209 16.8048 15.9357 16.8801 16.0622 16.9316C16.1887 16.983 16.3244 17.0095 16.4614 17.0095C16.5985 17.0095 16.7342 16.983 16.8607 16.9316C16.9872 16.8801 17.102 16.8048 17.1984 16.7098L31.0205 3.16493V22.071L1.92807 22.0877Z" fill="#5A5A5A"/>
</svg>
