<svg width="25" height="18" viewBox="0 0 25 18" fill="none" xmlns="http://www.w3.org/2000/svg">
<g clip-path="url(#clip0_890_20989)">
<path d="M23.71 11.835H12.59C12.3179 11.0005 11.7888 10.2735 11.0784 9.758C10.368 9.24246 9.51278 8.96484 8.63504 8.96484C7.7573 8.96484 6.90206 9.24246 6.19168 9.758C5.4813 10.2735 4.95216 11.0005 4.68002 11.835H1.57004C1.38906 11.8192 1.20676 11.8411 1.03473 11.8995C0.862694 11.9579 0.704689 12.0514 0.57074 12.1741C0.43679 12.2969 0.329825 12.4461 0.256653 12.6124C0.18348 12.7786 0.145691 12.9583 0.145691 13.14C0.145691 13.3217 0.18348 13.5014 0.256653 13.6677C0.329825 13.8339 0.43679 13.9832 0.57074 14.1059C0.704689 14.2286 0.862694 14.3222 1.03473 14.3806C1.20676 14.4389 1.38906 14.4609 1.57004 14.445H4.68002C4.95216 15.2795 5.4813 16.0065 6.19168 16.522C6.90206 17.0376 7.7573 17.3152 8.63504 17.3152C9.51278 17.3152 10.368 17.0376 11.0784 16.522C11.7888 16.0065 12.3179 15.2795 12.59 14.445H23.71C24.0364 14.4164 24.3403 14.2665 24.5616 14.025C24.7829 13.7834 24.9057 13.4677 24.9057 13.14C24.9057 12.8124 24.7829 12.4966 24.5616 12.2551C24.3403 12.0135 24.0364 11.8636 23.71 11.835ZM8.64005 15.005C8.26935 15.007 7.90643 14.8987 7.59738 14.694C7.28833 14.4893 7.0471 14.1974 6.90433 13.8553C6.76155 13.5132 6.72367 13.1364 6.7955 12.7727C6.86734 12.409 7.04564 12.0749 7.30777 11.8127C7.56989 11.5506 7.90403 11.3723 8.2677 11.3005C8.63137 11.2286 9.00818 11.2665 9.35028 11.4093C9.69238 11.5521 9.98434 11.7933 10.1891 12.1024C10.3938 12.4114 10.502 12.7743 10.5 13.145C10.4974 13.6375 10.3006 14.1091 9.95236 14.4573C9.60411 14.8056 9.13254 15.0024 8.64005 15.005Z" fill="white"/>
<path d="M1.57004 6.16504H12.68C12.9522 6.99952 13.4813 7.72653 14.1917 8.24207C14.9021 8.7576 15.7573 9.03522 16.635 9.03522C17.5128 9.03522 18.368 8.7576 19.0784 8.24207C19.7888 7.72653 20.3179 6.99952 20.59 6.16504H23.7C23.881 6.1809 24.0633 6.1589 24.2354 6.10052C24.4074 6.04215 24.5654 5.94865 24.6993 5.82593C24.8333 5.7032 24.9403 5.55392 25.0134 5.38763C25.0866 5.22135 25.1244 5.04172 25.1244 4.86005C25.1244 4.67838 25.0866 4.49868 25.0134 4.3324C24.9403 4.16611 24.8333 4.01683 24.6993 3.8941C24.5654 3.77138 24.4074 3.67789 24.2354 3.61951C24.0633 3.56113 23.881 3.5392 23.7 3.55505H20.59C20.3179 2.72057 19.7888 1.9935 19.0784 1.47797C18.368 0.962431 17.5128 0.684814 16.635 0.684814C15.7573 0.684814 14.9021 0.962431 14.1917 1.47797C13.4813 1.9935 12.9522 2.72057 12.68 3.55505H1.57004C1.38906 3.5392 1.20676 3.56113 1.03473 3.61951C0.862694 3.67789 0.704689 3.77138 0.57074 3.8941C0.43679 4.01683 0.329825 4.16611 0.256653 4.3324C0.18348 4.49868 0.145691 4.67838 0.145691 4.86005C0.145691 5.04172 0.18348 5.22135 0.256653 5.38763C0.329825 5.55392 0.43679 5.7032 0.57074 5.82593C0.704689 5.94865 0.862694 6.04215 1.03473 6.10052C1.20676 6.1589 1.38906 6.1809 1.57004 6.16504ZM16.64 2.995C17.0099 2.995 17.3714 3.1047 17.679 3.31018C17.9865 3.51566 18.2261 3.80772 18.3677 4.14941C18.5092 4.49111 18.5462 4.86711 18.4741 5.22986C18.4019 5.5926 18.2238 5.92579 17.9623 6.18732C17.7008 6.44884 17.3676 6.62694 17.0049 6.6991C16.6421 6.77125 16.2661 6.73419 15.9244 6.59265C15.5827 6.45112 15.2907 6.21145 15.0852 5.90393C14.8797 5.59641 14.77 5.2349 14.77 4.86505C14.77 4.3691 14.9671 3.89342 15.3177 3.54272C15.6684 3.19203 16.1441 2.995 16.64 2.995Z" fill="white"/>
</g>
<defs>
<clipPath id="clip0_890_20989">
<rect width="24.74" height="16.65" fill="white" transform="translate(0.26001 0.675049)"/>
</clipPath>
</defs>
</svg>
