<svg width="50" height="50" viewBox="0 0 50 50" fill="none" xmlns="http://www.w3.org/2000/svg">
<circle cx="25" cy="25" r="23.5" stroke="#51B6BE" stroke-width="3"/>
<path fill-rule="evenodd" clip-rule="evenodd" d="M24.5058 16.3608C24.9242 16.7792 25.028 17.3537 24.7377 17.6441L18.096 24.2858H33.8491C34.4847 24.2858 34.9999 24.7654 34.9999 25.3572C34.9999 25.9489 34.4847 26.4286 33.8491 26.4286H17.9438L24.7377 33.2226C25.028 33.5129 24.9242 34.0875 24.5058 34.5059C24.0874 34.9243 23.5128 35.0281 23.2225 34.7378L14.8114 26.3267C14.771 26.2864 14.7383 26.2406 14.713 26.1905C14.4523 25.9941 14.2856 25.6937 14.2856 25.3572C14.2856 24.9177 14.5699 24.54 14.9766 24.3747L23.2225 16.1288C23.5128 15.8385 24.0873 15.9423 24.5058 16.3608Z" fill="#51B6BE"/>
</svg>
