<svg width="32" height="32" viewBox="0 0 32 32" fill="none" xmlns="http://www.w3.org/2000/svg">
<g clip-path="url(#clip0_725_1920)">
<path d="M16.7802 22.33C18.9902 23.56 20.8703 24.76 22.8703 25.68C24.8703 26.6 24.8703 28.5 24.3703 30.06C24.1403 30.78 22.5102 31.43 21.5002 31.45C15.3202 31.5767 9.14023 31.5767 2.96023 31.45C2.04023 31.45 0.550244 30.73 0.350244 30.04C-0.0597557 28.66 -0.369751 26.91 1.48025 25.94C3.59025 24.83 5.66022 23.66 8.08022 22.34C5.08022 19.1 4.95022 15.18 5.08022 11.21C5.22022 7.92002 8.67026 4.99002 12.4303 4.96002C16.0203 4.96002 19.4802 7.85003 19.5702 11.12C19.6602 14.98 19.9802 18.91 16.7802 22.33ZM22.6203 29.54L23.1803 28.86C22.6633 28.1804 22.0693 27.563 21.4102 27.02C19.7402 25.97 17.9702 25.09 16.2602 24.09C14.9602 23.33 14.5402 22.15 15.5802 21.02C18.2102 18.15 18.0403 14.67 17.9203 11.22C17.8303 8.81002 15.2602 6.85001 12.5002 6.81001C9.74021 6.77001 6.93027 8.81002 6.81027 11.24C6.64027 14.63 6.66026 17.99 9.18026 20.78C10.3503 22.08 10.0902 23.32 8.45022 24.18C6.81022 25.04 4.93024 26 3.28024 27.07C2.59024 27.52 2.20024 28.41 1.28024 29.54H22.6203Z" fill="#5A5A5A"/>
<path d="M13.1401 3.17997C16.0001 0.179972 18.8301 -0.650031 21.6301 0.489969C24.2001 1.48997 26.7501 3.39997 26.5801 7.32997C26.4201 10.9 26.4301 14.41 23.5801 17.39C25.8701 18.66 27.9502 19.77 29.9902 20.95C31.3802 21.74 32.2702 24.69 31.1202 25.6C30.1202 26.37 28.4502 26.32 27.0602 26.42C26.7902 26.42 26.4402 25.47 26.0602 24.8L30.2802 24.55C29.5202 23.55 29.1802 22.63 28.5402 22.23C26.8802 21.16 25.1102 20.29 23.3602 19.37C21.6102 18.45 21.3602 17.22 22.6202 15.79C25.2102 12.79 25.1202 9.22997 24.7202 5.71996C24.4002 2.88997 20.2501 1.15997 17.1301 2.20997C16.0301 2.56997 14.9001 2.75997 13.1401 3.17997Z" fill="#5A5A5A"/>
</g>
<defs>
<clipPath id="clip0_725_1920">
<rect width="31.66" height="31.55" fill="white"/>
</clipPath>
</defs>
</svg>
