<svg width="30" height="34" viewBox="0 0 30 34" fill="none" xmlns="http://www.w3.org/2000/svg">
<path d="M27.83 8.12994C28.2576 8.37564 28.613 8.72955 28.8605 9.1561C29.108 9.58264 29.2389 10.0668 29.24 10.56V24.08C29.2389 24.5731 29.108 25.0573 28.8605 25.4838C28.613 25.9104 28.2576 26.2643 27.83 26.5099L16.03 33.27C15.5997 33.5127 15.114 33.6402 14.62 33.6402C14.126 33.6402 13.6403 33.5127 13.21 33.27L1.42001 26.5099C0.991235 26.2647 0.634383 25.9112 0.385178 25.4848C0.135972 25.0583 0.00314762 24.5739 0 24.08V10.56C0.00314762 10.066 0.135972 9.58161 0.385178 9.15515C0.634383 8.72869 0.991235 8.37515 1.42001 8.12994L13.21 1.32996C13.6409 1.08911 14.1263 0.962646 14.62 0.962646C15.1137 0.962646 15.5991 1.08911 16.03 1.32996L27.83 8.12994ZM27.23 24.0399V10.5999C27.2284 10.4666 27.1926 10.336 27.126 10.2204C27.0595 10.1049 26.9645 10.0083 26.85 9.93994L15.18 3.21997C15.0398 3.15205 14.8857 3.1178 14.73 3.11996C14.555 3.11835 14.3815 3.15238 14.22 3.21997L2.43 9.93994C2.31301 10.0063 2.21545 10.1022 2.14703 10.218C2.0786 10.3338 2.0417 10.4655 2.04 10.5999V24.17C2.04042 24.3022 2.07579 24.4319 2.14252 24.5461C2.20926 24.6602 2.30499 24.7547 2.42001 24.8199L14.48 31.5399C14.6059 31.5894 14.7427 31.6043 14.8763 31.5833C15.0099 31.5622 15.1355 31.5058 15.24 31.42L26.85 24.7C26.9645 24.6316 27.0595 24.535 27.126 24.4195C27.1926 24.304 27.2284 24.1733 27.23 24.0399V24.0399ZM22.51 13.45C22.6945 13.4734 22.8687 13.5478 23.0132 13.6648C23.1577 13.7818 23.2667 13.9368 23.328 14.1124C23.3893 14.2879 23.4004 14.4771 23.3601 14.6586C23.3199 14.8401 23.2298 15.0068 23.1 15.14L19.89 18.58L20.73 23.45C20.7646 23.6384 20.7444 23.8328 20.6717 24.0101C20.5991 24.1874 20.477 24.3401 20.32 24.45C20.1457 24.5762 19.9352 24.6428 19.72 24.64C19.5525 24.6408 19.3874 24.5995 19.24 24.52L14.87 22.24L10.5 24.52C10.3322 24.6131 10.1412 24.6561 9.94971 24.6437C9.75821 24.6313 9.57433 24.564 9.42001 24.45C9.26486 24.3388 9.14475 24.1856 9.07388 24.0084C9.003 23.8312 8.9843 23.6374 9.02 23.45L9.86 18.58L6.62 15.15C6.49662 15.0186 6.41103 14.8563 6.37231 14.6802C6.33358 14.5042 6.34315 14.321 6.4 14.15C6.45951 13.9741 6.5668 13.8183 6.70986 13.7C6.85292 13.5816 7.02611 13.5054 7.21001 13.4799L11.82 12.7599L14 9.15994C14.0894 9.0092 14.2168 8.88461 14.3695 8.79861C14.5222 8.71262 14.6948 8.66824 14.87 8.66995C15.0469 8.66646 15.2216 8.71 15.3762 8.79608C15.5308 8.88217 15.6598 9.00771 15.75 9.15994L17.92 12.7599L22.51 13.45ZM18.05 17.56L20.29 15.1599L17.14 14.67C16.9917 14.649 16.85 14.595 16.7254 14.5119C16.6008 14.4288 16.4964 14.3188 16.42 14.1899L14.87 11.6299L13.3 14.1899C13.2236 14.3188 13.1192 14.4288 12.9946 14.5119C12.87 14.595 12.7283 14.649 12.58 14.67L9.41 15.1599L11.67 17.56C11.7807 17.6732 11.8629 17.8112 11.9098 17.9624C11.9568 18.1137 11.9671 18.2739 11.94 18.43L11.36 21.7599L14.36 20.1899C14.5044 20.112 14.6659 20.0708 14.83 20.0699C14.9975 20.0691 15.1626 20.1104 15.31 20.1899L18.31 21.7599L17.74 18.43C17.7116 18.2747 17.7204 18.115 17.7656 17.9637C17.8108 17.8125 17.8911 17.6742 18 17.56" fill="#5A5A5A"/>
</svg>
