<svg width="42" height="46" viewBox="0 0 42 46" fill="none" xmlns="http://www.w3.org/2000/svg">
<g clip-path="url(#clip0_450_21350)">
<path d="M29.8405 21.2234L28.627 45.4098H33.4811L32.2676 24.1142" stroke="#5A5B5B" stroke-width="1.5" stroke-miterlimit="10"/>
<path d="M31.054 20.6934C32.381 20.6934 33.4568 19.6257 33.4568 18.3085C33.4568 16.9913 32.381 15.9236 31.054 15.9236C29.727 15.9236 28.6512 16.9913 28.6512 18.3085C28.6512 19.6257 29.727 20.6934 31.054 20.6934Z" fill="white" stroke="#5A5B5B" stroke-width="1.5" stroke-miterlimit="10"/>
<path d="M33.7602 18.4893L41.3932 0.722857C41.3932 0.626497 41.2962 0.554218 41.2476 0.638533L29.5614 16.0803L33.7602 18.4893Z" stroke="#5A5B5B" stroke-width="1.5" stroke-miterlimit="10"/>
<path d="M29.5614 20.5489L41.2476 35.9786C41.2476 36.0629 41.4296 35.9786 41.3932 35.8943L33.7602 18.1399L29.5614 20.5489Z" stroke="#5A5B5B" stroke-width="1.5" stroke-miterlimit="10"/>
<path d="M29.8648 15.8994L10.5577 18.2241C10.5351 18.2241 10.5135 18.233 10.4976 18.2488C10.4817 18.2646 10.4727 18.2861 10.4727 18.3084C10.4727 18.3308 10.4817 18.3522 10.4976 18.368C10.5135 18.3839 10.5351 18.3927 10.5577 18.3927L29.8648 20.7174V15.8994Z" stroke="#5A5B5B" stroke-width="1.5" stroke-miterlimit="10"/>
<path d="M31.054 20.6934C32.381 20.6934 33.4568 19.6257 33.4568 18.3085C33.4568 16.9913 32.381 15.9236 31.054 15.9236C29.727 15.9236 28.6512 16.9913 28.6512 18.3085C28.6512 19.6257 29.727 20.6934 31.054 20.6934Z" fill="white" stroke="#5A5B5B" stroke-width="1.5" stroke-miterlimit="10"/>
<path d="M1.77173 34.9426H20.4236" stroke="#5A5B5B" stroke-width="1.5" stroke-miterlimit="10"/>
<path d="M13.5186 39.9172V45.4098H9.87805V39.9172" stroke="#5A5B5B" stroke-width="1.5" stroke-miterlimit="10"/>
<path d="M13.7856 29.5344L15.1811 40.6881" stroke="#5A5B5B" stroke-width="1.5" stroke-miterlimit="10"/>
<path d="M8.99217 29.5344L7.59662 40.6881" stroke="#5A5B5B" stroke-width="1.5" stroke-miterlimit="10"/>
<path d="M17.6931 29.5344H5.09677C4.83305 29.5328 4.57519 29.6116 4.35813 29.7603C4.14106 29.909 3.97529 30.1203 3.88324 30.3656L0.703822 38.6164C0.629661 38.8122 0.604169 39.0229 0.629495 39.2305C0.654821 39.4382 0.730203 39.6367 0.84929 39.8093C0.968378 39.9818 1.12766 40.1234 1.31358 40.2218C1.49951 40.3203 1.70661 40.3729 1.91734 40.375H20.8726C21.0833 40.3729 21.2904 40.3203 21.4763 40.2218C21.6622 40.1234 21.8215 39.9818 21.9406 39.8093C22.0597 39.6367 22.1351 39.4382 22.1604 39.2305C22.1857 39.0229 22.1602 38.8122 22.0861 38.6164L18.9188 30.3656C18.8217 30.1212 18.653 29.9114 18.4345 29.7632C18.216 29.6151 17.9577 29.5354 17.6931 29.5344Z" stroke="#5A5B5B" stroke-width="1.5" stroke-miterlimit="10"/>
</g>
<defs>
<clipPath id="clip0_450_21350">
<rect width="42" height="46" fill="white"/>
</clipPath>
</defs>
</svg>
