<svg width="32" height="33" viewBox="0 0 32 33" fill="none" xmlns="http://www.w3.org/2000/svg">
<path d="M20.9201 21.49C23.8601 22.92 26.4401 24.36 29.1801 25.44C31.7501 26.44 31.7401 28.39 31.4401 30.5C31.1401 32.61 29.3501 32.44 27.8001 32.44H3.58012C2.20012 32.44 0.480129 32.71 0.210129 30.82C-0.059871 28.93 -0.489827 26.7 2.13017 25.59C4.98017 24.38 7.73015 22.94 10.7301 21.5C6.60015 17.36 6.81015 12.36 7.11015 7.41001C7.28015 4.62001 10.3401 2.07 14.0301 1.23C15.2882 0.924311 16.5992 0.906656 17.8652 1.17835C19.1311 1.45005 20.3194 2.00409 21.3414 2.79914C22.3633 3.59419 23.1925 4.60973 23.7671 5.77C24.3418 6.93026 24.647 8.2053 24.6601 9.50001C24.6901 13.75 24.4801 17.97 20.9201 21.49ZM29.5102 30.49C30.1002 28.71 29.6601 27.61 27.9501 26.88C25.5301 25.88 23.1701 24.68 20.8101 23.53C19.3001 22.79 18.5301 21.53 19.8101 20.19C22.9601 16.94 22.9501 12.95 22.8101 8.9C22.8101 5.96 20.0601 3.32 16.7001 2.9C13.7001 2.51 9.33008 4.61001 9.03008 7.08001C8.52007 11.38 8.11007 15.8 11.2801 19.53C13.0801 21.65 12.8501 22.53 10.2801 23.76C8.14007 24.81 6.01011 25.88 3.82011 26.81C2.06011 27.56 1.49008 28.68 2.16008 30.52L29.5102 30.49Z" fill="#5A5A5A"/>
</svg>
