<svg width="34" height="34" viewBox="0 0 34 34" fill="none" xmlns="http://www.w3.org/2000/svg">
<path d="M17 0C20.3623 0 23.6491 0.997027 26.4447 2.86501C29.2403 4.733 31.4193 7.38803 32.7059 10.4944C33.9926 13.6007 34.3293 17.0189 33.6733 20.3165C33.0174 23.6142 31.3983 26.6433 29.0208 29.0208C26.6433 31.3983 23.6142 33.0174 20.3165 33.6733C17.0188 34.3293 13.6007 33.9926 10.4944 32.7059C7.38805 31.4193 4.73305 29.2403 2.86506 26.4447C0.997081 23.6491 0 20.3623 0 17C0 12.4913 1.79109 8.1673 4.9792 4.97918C8.16732 1.79106 12.4913 0 17 0ZM17 2.12388C14.0578 2.12388 11.1816 2.99634 8.73526 4.63095C6.28889 6.26556 4.3822 8.58889 3.25626 11.3072C2.13033 14.0254 1.83576 17.0165 2.40976 19.9022C2.98376 22.7879 4.40054 25.4385 6.481 27.519C8.56146 29.5995 11.2121 31.0163 14.0978 31.5903C16.9835 32.1643 19.9746 31.8697 22.6928 30.7437C25.4111 29.6178 27.7344 27.7111 29.369 25.2647C31.0037 22.8184 31.8761 19.9422 31.8761 17C31.8714 13.0561 30.3025 9.27503 27.5137 6.48625C24.725 3.69747 20.9439 2.12864 17 2.12388ZM16.883 12.8602H19.1509L20.8878 15.6861L22.6877 12.8602H24.8205L21.9767 17.09L25.0725 21.7247H22.7507L20.8158 18.6559L18.8359 21.7247H16.649L19.7448 17.081L16.883 12.8602ZM9.35046 21.7607V21.5627C9.35046 21.3377 9.35046 21.1218 9.35046 20.9058C9.36963 20.6903 9.40574 20.4766 9.45845 20.2668C9.59874 19.7712 9.84776 19.3131 10.1874 18.9259C10.4129 18.663 10.6598 18.4192 10.9254 18.1969C11.2619 17.9036 11.6198 17.6359 11.9963 17.396L12.8962 16.802C13.1081 16.6544 13.3068 16.4888 13.4902 16.307C13.6382 16.1664 13.7574 15.9982 13.8412 15.8121C13.9158 15.6262 13.9525 15.4273 13.9492 15.2271C13.9569 15.0762 13.9329 14.9253 13.8786 14.7842C13.8244 14.6431 13.7411 14.515 13.6342 14.4081C13.5153 14.2951 13.3732 14.2091 13.2179 14.1563C13.0625 14.1035 12.8975 14.085 12.7343 14.1022C12.352 14.1034 11.9801 14.2264 11.6723 14.4531C11.309 14.7121 11.0026 15.0429 10.7724 15.4251L9.36847 14.4441C9.54231 14.1448 9.75073 13.8669 9.98944 13.6162C10.2088 13.3674 10.4635 13.1521 10.7454 12.9772C11.0244 12.7976 11.3273 12.6582 11.6453 12.5633C12.0085 12.4621 12.3843 12.4136 12.7613 12.4193C13.2027 12.4149 13.6424 12.4756 14.0662 12.5993C14.416 12.7117 14.7402 12.8921 15.0201 13.1302C15.2808 13.3645 15.4867 13.6533 15.6231 13.9762C15.761 14.3318 15.8282 14.7108 15.8211 15.0921C15.8228 15.3395 15.8017 15.5865 15.7581 15.8301C15.6999 16.0835 15.6028 16.3264 15.4701 16.55C15.3027 16.8216 15.0999 17.0698 14.8671 17.288C14.5525 17.5882 14.2088 17.8565 13.8412 18.0889L12.7613 18.8089C12.4823 19.0159 12.2483 19.1959 12.0773 19.3489C11.9277 19.4756 11.7946 19.6208 11.6813 19.7808C11.5978 19.9001 11.5311 20.0303 11.4833 20.1678H15.8841V21.7607H9.35046Z" fill="#5A5A5A"/>
</svg>
