<svg width="50" height="50" viewBox="0 0 50 50" fill="none" xmlns="http://www.w3.org/2000/svg">
<g clip-path="url(#clip0_904_22063)">
<path d="M25.78 31.33C27.99 32.56 29.87 33.76 31.87 34.68C33.87 35.6 33.87 37.5 33.37 39.06C33.14 39.78 31.51 40.43 30.5 40.45C24.32 40.5766 18.14 40.5766 11.96 40.45C11.04 40.45 9.55 39.73 9.35 39.04C8.94 37.66 8.63001 35.91 10.48 34.94C12.59 33.83 14.66 32.66 17.08 31.34C14.08 28.1 13.95 24.18 14.08 20.21C14.22 16.92 17.67 13.99 21.43 13.96C25.02 13.96 28.48 16.85 28.57 20.12C28.66 23.98 28.98 27.91 25.78 31.33ZM31.62 38.54L32.18 37.86C31.663 37.1804 31.069 36.5629 30.41 36.02C28.74 34.97 26.97 34.09 25.26 33.09C23.96 32.33 23.54 31.15 24.58 30.02C27.21 27.15 27.04 23.67 26.92 20.22C26.83 17.81 24.26 15.85 21.5 15.81C18.74 15.77 15.93 17.81 15.81 20.24C15.64 23.63 15.66 26.99 18.18 29.78C19.35 31.08 19.09 32.32 17.45 33.18C15.81 34.04 13.93 35 12.28 36.07C11.59 36.52 11.2 37.41 10.28 38.54H31.62Z" fill="#5A5A5A"/>
<path d="M22.14 12.18C25 9.18003 27.83 8.35003 30.63 9.49003C33.2 10.49 35.75 12.4 35.58 16.33C35.42 19.9 35.43 23.41 32.58 26.39C34.87 27.66 36.9501 28.77 38.9901 29.95C40.3801 30.74 41.2701 33.69 40.1201 34.6C39.1201 35.37 37.4501 35.32 36.0601 35.42C35.7901 35.42 35.4401 34.47 35.0601 33.8L39.28 33.55C38.52 32.55 38.18 31.63 37.54 31.23C35.88 30.16 34.11 29.29 32.36 28.37C30.61 27.45 30.3601 26.22 31.6201 24.79C34.2101 21.79 34.12 18.23 33.72 14.72C33.4 11.89 29.25 10.16 26.13 11.21C25.03 11.57 23.9 11.76 22.14 12.18Z" fill="#5A5A5A"/>
</g>
<defs>
<clipPath id="clip0_904_22063">
<rect width="31.66" height="31.55" fill="white" transform="translate(9 9)"/>
</clipPath>
</defs>
</svg>
