<svg width="50" height="50" viewBox="0 0 50 50" fill="none" xmlns="http://www.w3.org/2000/svg">
<g clip-path="url(#clip0_904_22148)">
<path d="M40.3 24.71C40.2882 27.8014 39.361 30.8201 37.6355 33.3851C35.91 35.9502 33.4634 37.9468 30.6045 39.123C27.7455 40.2992 24.6023 40.6023 21.5713 39.9941C18.5402 39.3859 15.7572 37.8937 13.5733 35.7056C11.3894 33.5175 9.90254 30.7317 9.30014 27.6995C8.69775 24.6673 9.00679 21.5247 10.1884 18.668C11.3701 15.8113 13.3714 13.3686 15.9398 11.6479C18.5082 9.92734 21.5285 9.00595 24.62 9C28.7821 9.0053 32.7718 10.6631 35.7121 13.609C38.6524 16.5549 40.3027 20.5478 40.3 24.71V24.71ZM24.54 38.65C27.2926 38.6579 29.9855 37.8484 32.2774 36.3241C34.5694 34.7998 36.3571 32.6293 37.4142 30.0878C38.4712 27.5463 38.7499 24.7482 38.2148 22.0481C37.6798 19.348 36.355 16.8676 34.4087 14.9213C32.4623 12.9749 29.9819 11.6503 27.2818 11.1152C24.5818 10.5801 21.7837 10.8588 19.2422 11.9158C16.7006 12.9728 14.5301 14.7606 13.0058 17.0526C11.4815 19.3445 10.6721 22.0375 10.68 24.79C10.7165 28.4546 12.1884 31.9588 14.7798 34.5502C17.3711 37.1416 20.8754 38.6135 24.54 38.65V38.65Z" fill="#51B6BE"/>
<path d="M33.01 18.26C31.19 21.61 30.01 25.64 27.37 28.1C24.88 30.42 20.85 31.1 17.49 32.49L16.73 31.69C18.45 28.42 19.51 24.44 22.08 22.09C24.65 19.74 28.75 18.58 32.4 17.58L33.01 18.26ZM24.01 22.76L27.01 26.28L29.64 20.53L24.01 22.76ZM22.5601 23.76L19.76 29.57L25.36 27.36L22.5601 23.76Z" fill="#51B6BE"/>
</g>
<defs>
<clipPath id="clip0_904_22148">
<rect width="31.3" height="31.49" fill="white" transform="translate(9 9)"/>
</clipPath>
</defs>
</svg>
