<svg width="50" height="50" viewBox="0 0 50 50" fill="none" xmlns="http://www.w3.org/2000/svg">
<g clip-path="url(#clip0_904_22078)">
<path d="M28.99 29.85H20.87C20.87 32.69 20.79 35.47 20.87 38.23C20.94 40.02 20.41 40.73 18.51 40.67C11.23 40.44 12.34 41.85 12.23 34.42C12.23 31.62 12.23 28.82 12.16 26.02C12.16 25.87 12.0399 25.73 11.9199 25.47L9.59998 26.47C9.59998 26.05 8.37998 26.7 9.34998 25.39C12.62 20.96 21.98 11.25 25.23 9.01001L40.97 25.53L40.33 26.37L37.65 25.37C37.65 29.64 37.54 33.81 37.7 37.97C37.79 40.2 37 40.8 34.86 40.73C28.21 40.5 29.03 41.81 28.96 34.82C28.98 33.21 28.99 31.65 28.99 29.85ZM25.35 11.7C22.9 14 20.6699 16.34 18.1899 18.35C16.5818 19.5468 15.3312 21.1602 14.5734 23.0161C13.8155 24.872 13.5792 26.8996 13.89 28.88C14.0933 32.1129 14.1166 35.3545 13.96 38.59H19.1799C19.1799 35.59 19.1799 32.81 19.1799 30.01C19.1799 28.45 19.79 27.79 21.4 27.86C23.7015 27.99 26.0084 27.99 28.3099 27.86C30.3099 27.72 30.8799 28.57 30.7999 30.45C30.6799 33.14 30.7999 35.84 30.7999 38.65H35.9399C35.9399 33.53 35.9399 28.53 35.9399 23.53C35.8799 22.9661 35.6336 22.4382 35.24 22.03C31.85 18.49 28.49 15 25.35 11.7Z" fill="#5A5A5A"/>
</g>
<defs>
<clipPath id="clip0_904_22078">
<rect width="32" height="31.69" fill="white" transform="translate(9 9)"/>
</clipPath>
</defs>
</svg>
