<svg width="50" height="50" viewBox="0 0 50 50" fill="none" xmlns="http://www.w3.org/2000/svg">
<g clip-path="url(#clip0_904_22159)">
<path d="M18.6901 14.92C19.3001 10.35 19.6901 10.01 23.8601 10H25.3401C29.6801 10 30.01 10.29 30.75 14.92C32.87 14.92 35.0601 14.99 37.2401 14.92C39.4201 14.85 40.42 15.64 40.4 17.92C40.33 24.16 40.34 30.41 40.4 36.65C40.4 38.81 39.4 39.54 37.4 39.53C28.92 39.49 20.4367 39.49 11.9501 39.53C9.85007 39.53 8.95001 38.66 9.02001 36.53C9.08001 30.2833 9.08001 24.0366 9.02001 17.79C9.02001 15.68 9.87001 14.79 12.02 14.89C14.17 14.99 16.4301 14.92 18.6901 14.92ZM10.8201 37.47H38.53V25.89H27.53C27.62 27.94 27.4301 29.51 24.9401 29.67C22.0401 29.85 21.82 27.98 21.76 25.87H10.8301L10.8201 37.47ZM38.5701 16.92H10.8601V23.69H21.54L21.1901 23.04C22.1901 22.31 23.1901 21.25 24.3301 20.92C26.5701 20.27 27.4901 21.92 27.8601 23.6H38.5701V16.92ZM20.77 14.73H28.63C29.05 12.73 28.48 11.73 26.42 11.84C25.2781 11.92 24.132 11.92 22.9901 11.84C20.9301 11.7 20.35 12.7 20.77 14.73V14.73ZM25.1001 27.95L25.8201 27.57C25.9038 26.2834 25.8771 24.992 25.7401 23.71C25.6701 23.34 24.6001 23.14 23.9801 22.86C23.7887 24.185 23.6851 25.5213 23.67 26.86C23.69 27.26 24.6001 27.6 25.1001 27.95V27.95Z" fill="#51B6BE"/>
</g>
<defs>
<clipPath id="clip0_904_22159">
<rect width="31.4" height="29.5" fill="white" transform="translate(9 10)"/>
</clipPath>
</defs>
</svg>
