<svg width="50" height="50" viewBox="0 0 50 50" fill="none" xmlns="http://www.w3.org/2000/svg">
<g clip-path="url(#clip0_904_22271)">
<path d="M30.0301 36.35C30.6901 35.76 31.3101 35.11 32.0301 34.57C33.9332 33.1811 35.3808 31.258 36.1891 29.045C36.9974 26.8319 37.13 24.4286 36.5701 22.14C36.0182 20 34.8504 18.0691 33.2115 16.5866C31.5725 15.1041 29.5345 14.1352 27.3501 13.8L28.7701 17.11L27.87 17.62C26.87 15.9 25.7501 14.18 24.7201 12.44C24.6899 12.3246 24.6896 12.2034 24.7194 12.0879C24.7492 11.9724 24.8078 11.8664 24.8901 11.78C26.6501 10.83 28.4401 9.92 30.2301 9L30.7301 9.89999L28.9001 11.26C31.3901 13.44 34.2601 15.44 36.4401 18.03C38.8301 20.86 39.0901 24.49 38.2201 28.1C37.0501 32.88 33.7501 36.57 30.0301 36.35Z" fill="#BABABA"/>
<path d="M21.8001 36L20.1701 32.47L21 31.97L24.8601 37.56L18.8601 40.46L18.39 39.59L20.6001 37.96C18.6001 36.53 16.4001 35.35 14.7101 33.65C13.3589 32.2408 12.3388 30.5482 11.7238 28.6952C11.1088 26.8423 10.9144 24.8756 11.1548 22.9382C11.3952 21.0007 12.0642 19.1412 13.1134 17.4947C14.1626 15.8483 15.5655 14.4563 17.2201 13.42C17.8941 13.1569 18.6072 13.0082 19.3301 12.98C19.0474 13.6433 18.6514 14.2523 18.16 14.78C10.72 20.2 11.0401 30.29 18.8601 34.78C19.8131 35.249 20.795 35.6565 21.8001 36V36Z" fill="#BABABA"/>
</g>
<defs>
<clipPath id="clip0_904_22271">
<rect width="27.67" height="31.45" fill="white" transform="translate(11 9)"/>
</clipPath>
</defs>
</svg>
