<svg width="50" height="50" viewBox="0 0 50 50" fill="none" xmlns="http://www.w3.org/2000/svg">
<g clip-path="url(#clip0_904_22155)">
<path d="M12.5701 33.4399C14.6601 28.0699 11.67 26.6399 10.5 24.7599C7.76001 20.3499 8.83 15.2899 13.23 12.5299C15.5092 11.0428 18.1373 10.1766 20.8541 10.017C23.5709 9.85741 26.2823 10.4099 28.72 11.6199C32.27 13.2299 34.54 15.9999 34.41 20.0699C34.28 24.1399 31.7001 26.7699 28.0701 28.3799C27.5626 28.6485 27.0101 28.8214 26.4401 28.8899C22.1256 29.0214 17.9481 30.4348 14.4401 32.9499C13.8457 33.2085 13.2149 33.3738 12.5701 33.4399V33.4399ZM15.16 30.5499C15.6897 30.3183 16.1926 30.0299 16.66 29.6899C18.14 28.0699 19.88 27.7399 22.09 27.6899C24.5487 27.6292 26.954 26.9592 29.09 25.74C33.78 22.98 33.87 17.2799 29.58 14.0999C25.29 10.9199 17.76 11.0999 13.65 14.4199C10.17 17.1999 9.87001 22.5999 13.37 25.3299C15.1 26.7099 16.38 27.8399 15.16 30.5999V30.5499Z" fill="#51B6BE"/>
<path d="M37.1801 39.43C35.6923 38.7534 34.2725 37.9364 32.9401 36.99C32.3444 36.4439 31.6458 36.022 30.8851 35.749C30.1245 35.476 29.317 35.3573 28.51 35.4C27.0836 35.4876 25.6592 35.1971 24.381 34.558C23.1027 33.9189 22.0158 32.9537 21.23 31.76C23.45 32.39 25.63 33.18 27.89 33.61C30.15 34.04 32.66 33.2 34.26 35.93C33.94 33.67 34.88 32.61 36.49 31.57C38.98 29.97 39.26 26.87 37.58 24.41C37.0574 23.4793 36.5996 22.5137 36.21 21.52C37.1758 21.9237 38.0331 22.5491 38.7124 23.3455C39.3917 24.142 39.874 25.0871 40.1204 26.1046C40.3667 27.122 40.3702 28.1831 40.1304 29.202C39.8906 30.221 39.4142 31.1692 38.74 31.97C36.23 34.9 36.2301 34.9 37.1801 39.43Z" fill="#51B6BE"/>
</g>
<defs>
<clipPath id="clip0_904_22155">
<rect width="31.32" height="29.43" fill="white" transform="translate(9 10)"/>
</clipPath>
</defs>
</svg>
